# Blender 3.4.1
# www.blender.org
mtllib tree1.mtl
o Plane.001
v -127.030266 46.346348 -67.093552
v -128.868530 46.433071 -67.876671
v -127.814125 46.346348 -65.253563
v -129.652390 46.433071 -66.036682
vn 0.0399 0.9991 0.0170
vt 0.000000 0.000000
vt 1.000000 0.000000
vt 0.000000 1.000000
vt 1.000000 1.000000
s 0
f 1/1/1 2/2/1 4/4/1 3/3/1
o Plane.004
v -69.023766 -34.865746 -0.277664
v -20.737597 -35.558182 -55.212769
v -65.485687 46.685226 1.804276
v -17.199514 45.992790 -53.130829
vn 0.7499 -0.0494 0.6597
vt 0.000000 0.000000
vt 1.000000 0.000000
vt 0.000000 1.000000
vt 1.000000 1.000000
s 0
usemtl Material.004
f 5/5/2 6/6/2 8/8/2 7/7/2
o Plane.005
v -71.455368 -31.713757 -55.188728
v -19.073912 -38.450954 -4.585443
v -67.149368 49.577999 -48.823051
v -14.767912 42.840801 1.780233
vn -0.6960 -0.0193 0.7178
vt 0.000000 0.000000
vt 1.000000 0.000000
vt 0.000000 1.000000
vt 1.000000 1.000000
s 0
usemtl Material.007
f 9/9/3 10/10/3 12/12/3 11/11/3
